<svg xmlns="http://www.w3.org/2000/svg" xmlns:xlink="http://www.w3.org/1999/xlink" version="1.1" x="0px" y="0px" viewBox="0 0 50 62.5" style="enable-background:new 0 0 50 50;" xml:space="preserve"><g><path d="M15.2,35.8c0.6,0.3,1.2,0.6,1.7,1l4.2-7.1c-0.6-0.3-1.2-0.6-1.7-1L15.2,35.8z"/><path d="M15.3,15.9l2.5,2.3c0.4-0.6,0.8-1.1,1.3-1.5l-2.5-2.3C16.2,14.9,15.8,15.4,15.3,15.9z"/><path d="M37.9,37.2l-8-9.4c-0.5,0.5-1,0.9-1.5,1.3l8,9.4C36.8,38,37.4,37.6,37.9,37.2z"/><path d="M38.1,13.4c-0.5-0.5-0.9-1-1.2-1.6l-7.2,5.4c0.5,0.5,0.9,1,1.2,1.6L38.1,13.4z"/><path d="M24.2,16.8c-3.2,0-5.8,2.6-5.8,5.8c0,3.2,2.6,5.8,5.8,5.8c3.2,0,5.8-2.6,5.8-5.8C29.9,19.4,27.4,16.8,24.2,16.8z"/><path d="M42.1,38c-3.2,0-5.8,2.6-5.8,5.8c0,3.2,2.6,5.8,5.8,5.8c3.2,0,5.8-2.6,5.8-5.8C47.9,40.6,45.3,38,42.1,38z"/><path d="M43.7,13.8c3.2,0,5.8-2.6,5.8-5.8c0-3.2-2.6-5.8-5.8-5.8c-3.2,0-5.8,2.6-5.8,5.8C37.9,11.2,40.5,13.8,43.7,13.8z"/><path d="M12.1,37.2c-3.2,0-5.8,2.6-5.8,5.8c0,3.2,2.6,5.8,5.8,5.8c3.2,0,5.8-2.6,5.8-5.8C17.9,39.8,15.3,37.2,12.1,37.2z"/><path d="M16.5,8.5c0-4.4-3.6-8-8-8c-4.4,0-8,3.6-8,8s3.6,8,8,8C13,16.5,16.5,12.9,16.5,8.5z"/></g></svg>